# WaveFront *.obj file (generated by Cheetah3D)

mtllib Tile.mtl

g Box
v -0.500000 -0.050000 0.500000
v -0.500000 0.000000 0.500000
v 0.500000 0.000000 0.500000
v 0.500000 -0.050000 0.500000
v -0.465000 0.050000 0.465000
v 0.465000 0.050000 0.465000
v 0.500000 -0.050000 -0.500000
v 0.500000 0.000000 -0.500000
v -0.500000 0.000000 -0.500000
v -0.500000 -0.050000 -0.500000
v 0.465000 0.050000 -0.465000
v -0.465000 0.050000 -0.465000

vt 0.000000 0.000000
vt 0.000000 0.500000
vt 1.000000 0.500000
vt 1.000000 0.000000
vt 0.000000 1.000000
vt 1.000000 1.000000

vn 0.000000 0.000000 1.000000
vn 0.000000 0.300641 0.953737
vn 0.000000 0.573464 0.819230
vn 0.000000 0.000000 -1.000000
vn 0.000000 0.300641 -0.953737
vn 0.000000 0.573464 -0.819230
vn 1.000000 0.000000 0.000000
vn 0.953737 0.300640 0.000000
vn 0.819231 0.573464 0.000000
vn -1.000000 0.000000 0.000000
vn -0.953737 0.300640 0.000000
vn -0.819231 0.573464 0.000000
vn 0.000000 1.000000 0.000000
vn 0.000000 -1.000000 0.000000

usemtl default
f 4/4/1 3/3/2 2/2/2 1/1/1
f 3/3/2 6/6/3 5/5/3 2/2/2
f 10/4/4 9/3/5 8/2/5 7/1/4
f 9/3/5 12/6/6 11/5/6 8/2/5
f 7/4/7 8/3/8 3/2/8 4/1/7
f 8/3/8 11/6/9 6/5/9 3/2/8
f 1/4/10 2/3/11 9/2/11 10/1/10
f 2/3/11 5/6/12 12/5/12 9/2/11
f 6/4/13 11/6/13 12/5/13 5/1/13
f 7/4/14 4/6/14 1/5/14 10/1/14

